<?xml version="1.0" encoding="UTF-8" standalone="no"?>
<svg
   viewBox="0 0 102.5 102.6"
   version="1.1"
   id="svg1"
   sodipodi:docname="napad.svg"
   inkscape:version="1.4.2 (2aeb623e1d, 2025-05-12)"
   xmlns:inkscape="http://www.inkscape.org/namespaces/inkscape"
   xmlns:sodipodi="http://sodipodi.sourceforge.net/DTD/sodipodi-0.dtd"
   xmlns="http://www.w3.org/2000/svg"
   xmlns:svg="http://www.w3.org/2000/svg">
  <defs
     id="defs1" />
  <sodipodi:namedview
     id="namedview1"
     pagecolor="#ffffff"
     bordercolor="#000000"
     borderopacity="0.25"
     inkscape:showpageshadow="2"
     inkscape:pageopacity="0.0"
     inkscape:pagecheckerboard="0"
     inkscape:deskcolor="#d1d1d1"
     inkscape:zoom="7.8265108"
     inkscape:cx="51.299999"
     inkscape:cy="51.299999"
     inkscape:window-width="1920"
     inkscape:window-height="1011"
     inkscape:window-x="0"
     inkscape:window-y="0"
     inkscape:window-maximized="1"
     inkscape:current-layer="svg1" />
  <style
     type="text/css"
     id="style1">.st0{fill:#111}</style>
  <g
     id="g1"
     style="fill:#000000">
    <path
       class="st0"
       d="M62.5,82.5h0.3c2.6,0,4.7-2.1,4.7-4.7v-6.3c0-7.6,2.4-14.4,6.9-19.3c5.2-5.8,8.1-13.2,8.1-21   c0-8.9-3.8-17.4-10.5-23.4C65.4,2,56.4-0.8,47.5,0.3c-13.6,1.6-25,12.5-27.1,26c-1.4,9.2,1.1,18.1,7,25.1   c4.9,5.8,7.6,12.9,7.6,20.1v6.3c0,2.6,2.1,4.7,4.7,4.7H40l0,9c0.2,2.8,2.3,5.1,5,5.7v4.1c0,0.7,0.6,1.3,1.3,1.3h10   c0.7,0,1.3-0.6,1.3-1.3v-4.1c2.7-0.7,4.8-2.9,5-5.7L62.5,82.5z M37.5,77.9v-6.3c0-7.8-2.9-15.5-8.2-21.7   c-5.5-6.5-7.7-14.7-6.4-23.1C24.8,14.3,35.3,4.2,47.8,2.8c1.2-0.1,2.4-0.2,3.5-0.2c7.1,0,13.7,2.5,19.1,7.3   c6.1,5.5,9.6,13.3,9.6,21.5c0,7.2-2.7,14-7.5,19.3c-4.9,5.3-7.5,12.8-7.5,21v6.3c0,1.2-1,2.2-2.2,2.2h-5.3v-8.8   c0-2.8-1.9-5.1-4.5-5.9l14.4-33.6c0.7-1.6-0.7-2.4-1.8-1.5l-14.3,9.5l-14.3-9.5c-1.2-0.7-2.4,0.1-1.8,1.5l14.4,33.6   c-2.6,0.7-4.5,3-4.5,5.9V80h-5.3C38.5,80,37.5,79.1,37.5,77.9z M51.2,67.5L51.2,67.5c2.1,0,3.8,1.7,3.8,3.7V80h-7.5v-8.8   C47.5,69.2,49.2,67.5,51.2,67.5z M51.3,63L39.1,34.7l11.5,7.7c0.2,0.1,0.4,0.2,0.7,0.2c0.2,0,0.5-0.1,0.7-0.2l11.5-7.7L51.3,63z    M55,100h-7.5v-2.5H55V100z M56,95h-9.5c-1.7,0-3.1-1-3.7-2.5h3.4c0.7,0,1.3-0.6,1.3-1.3S46.9,90,46.3,90h-3.8v-2.5h3.8   c0.7,0,1.3-0.6,1.3-1.3S46.9,85,46.3,85h-3.8v-2.5H60V85h-3.8c-0.7,0-1.3,0.6-1.3,1.3s0.6,1.3,1.3,1.3H60V90h-3.8   c-0.7,0-1.3,0.6-1.3,1.3s0.6,1.3,1.3,1.3h3.4C59.1,94,57.7,95,56,95z"
       id="path1"
       style="fill:#000000" />
  </g>
  <script
     type="text/javascript"
     id="script1"><![CDATA[ var c=window.location.search.split("color=")[1];if(c=parseInt(c,16),!isNaN(c)){c=c.toString(16);for(var p=document.getElementsByTagName("path"),i=0,l=p.length;i<l;i++){p[i].style.fill="#"+c}} ]]></script>
</svg>
