<?xml version="1.0" encoding="UTF-8" standalone="no"?>
<svg
   viewBox="0 0 269.4 267.2"
   version="1.1"
   id="svg27"
   sodipodi:docname="konstrukce.svg"
   inkscape:version="1.4.2 (2aeb623e1d, 2025-05-12)"
   xmlns:inkscape="http://www.inkscape.org/namespaces/inkscape"
   xmlns:sodipodi="http://sodipodi.sourceforge.net/DTD/sodipodi-0.dtd"
   xmlns="http://www.w3.org/2000/svg"
   xmlns:svg="http://www.w3.org/2000/svg">
  <defs
     id="defs27" />
  <sodipodi:namedview
     id="namedview27"
     pagecolor="#ffffff"
     bordercolor="#000000"
     borderopacity="0.25"
     inkscape:showpageshadow="2"
     inkscape:pageopacity="0.0"
     inkscape:pagecheckerboard="0"
     inkscape:deskcolor="#d1d1d1"
     inkscape:zoom="3.0052394"
     inkscape:cx="134.59826"
     inkscape:cy="133.60001"
     inkscape:window-width="1920"
     inkscape:window-height="1011"
     inkscape:window-x="0"
     inkscape:window-y="0"
     inkscape:window-maximized="1"
     inkscape:current-layer="svg27" />
  <style
     type="text/css"
     id="style1">.st0{fill:#525456}</style>
  <g
     id="g1" />
  <g
     id="g27"
     style="fill:#000000">
    <g
       id="g26"
       style="fill:#000000">
      <g
         id="g18"
         style="fill:#000000">
        <g
           id="g5"
           style="fill:#000000">
          <g
             id="g2"
             style="fill:#000000">
            <path
               class="st0"
               d="M141.8,135.1c-1.4,0-2.5-1.1-2.5-2.5l0-33.2c0-1.4,1.1-2.5,2.5-2.5h0c1.4,0,2.5,1.1,2.5,2.5l0,33.2       C144.3,134,143.2,135.1,141.8,135.1L141.8,135.1z"
               id="path1"
               style="fill:#000000" />
          </g>
          <g
             id="g3"
             style="fill:#000000">
            <path
               class="st0"
               d="M154.1,121.4c-1.4,0-2.5-1.1-2.5-2.5l0-14.4c0-1.4,1.1-2.5,2.5-2.5h0c1.4,0,2.5,1.1,2.5,2.5l0,14.4       C156.6,120.2,155.5,121.3,154.1,121.4L154.1,121.4z"
               id="path2"
               style="fill:#000000" />
          </g>
          <g
             id="g4"
             style="fill:#000000">
            <path
               class="st0"
               d="M130.1,128C130.1,128,130.1,128,130.1,128c-1.4,0-2.5-1.1-2.5-2.5l0-14.4c0-1.4,1.1-2.5,2.5-2.5       c0,0,0,0,0,0c1.4,0,2.5,1.1,2.5,2.5l0,14.4C132.6,126.9,131.5,128,130.1,128z"
               id="path3"
               style="fill:#000000" />
          </g>
        </g>
        <g
           id="g6"
           style="fill:#000000">
          <path
             class="st0"
             d="M21,225.8L8.4,213.2L151.1,70.5l52.8,52.8l-40.7,6.6l11.5,16.3l-40.5,6.6l11.5,16.3l-40.5,6.6l11.5,16.3      l-40.5,6.6l11.5,16.3L21,225.8z M15.4,213.2l7.3,7.3l56.4-9.2L67.5,195l40.5-6.6l-11.5-16.3l40.5-6.6l-11.5-16.3l40.5-6.6      l-11.5-16.3l39-6.3l-42.4-42.4L15.4,213.2z"
             id="path5"
             style="fill:#000000" />
        </g>
        <g
           id="g7"
           style="fill:#000000">
          <path
             class="st0"
             d="M188.2,113.6c-1.2,0-2.2-0.9-2.5-2.1c-0.2-1.4,0.7-2.7,2-2.9l34.9-6.1c1.4-0.2,2.7,0.7,2.9,2      c0.2,1.4-0.7,2.7-2,2.9l-34.9,6.1C188.5,113.6,188.4,113.6,188.2,113.6z"
             id="path6"
             style="fill:#000000" />
        </g>
        <g
           id="g8"
           style="fill:#000000">
          <path
             class="st0"
             d="M244.5,62.9c-0.6,0-1.3-0.2-1.8-0.7l-28.3-28.3c-1-1-1-2.6,0-3.5c1-1,2.6-1,3.5,0l28.3,28.3      c1,1,1,2.6,0,3.5C245.8,62.7,245.2,62.9,244.5,62.9z"
             id="path7"
             style="fill:#000000" />
        </g>
        <g
           id="g9"
           style="fill:#000000">
          <path
             class="st0"
             d="M223.2,107.5c-0.6,0-1.3-0.2-1.8-0.7c-1-1-1-2.6,0-3.5l33-33c1-1,2.6-1,3.5,0c1,1,1,2.6,0,3.5l-33,33      C224.5,107.2,223.8,107.5,223.2,107.5z"
             id="path8"
             style="fill:#000000" />
        </g>
        <g
           id="g10"
           style="fill:#000000">
          <path
             class="st0"
             d="M188.2,113.6c-0.6,0-1.3-0.2-1.8-0.7L147.6,74l55.3-55.3c1-1,2.6-1,3.5,0c1,1,1,2.6,0,3.5L154.7,74      l35.3,35.3c1,1,1,2.6,0,3.5C189.5,113.4,188.9,113.6,188.2,113.6z"
             id="path9"
             style="fill:#000000" />
        </g>
        <g
           id="g11"
           style="fill:#000000">
          <path
             class="st0"
             d="M199.2,94.4l-25.6-25.6l26.5-26.5l34.3,34.3l-14.9,14.9L199.2,94.4z M180.7,68.8L201,89.1l16.1-2.3      l10.2-10.2l-27.2-27.2L180.7,68.8z"
             id="path10"
             style="fill:#000000" />
        </g>
        <g
           id="g12"
           style="fill:#000000">
          <path
             class="st0"
             d="M216.2,34.6c-0.6,0-1.3-0.2-1.8-0.7c-1-1-1-2.6,0-3.5c1.1-1.1,1.7-2.5,1.7-4.1c0-1.5-0.6-2.9-1.7-4      c-1.1-1.1-2.5-1.7-4-1.7h0c-1.5,0-3,0.6-4,1.7c-1,1-2.6,1-3.5,0c-1-1-1-2.6,0-3.5c2-2,4.7-3.1,7.6-3.1c0,0,0,0,0,0      c2.9,0,5.6,1.1,7.6,3.1c2,2,3.1,4.7,3.1,7.6c0,2.9-1.1,5.6-3.2,7.6C217.5,34.4,216.9,34.6,216.2,34.6z"
             id="path11"
             style="fill:#000000" />
        </g>
        <g
           id="g13"
           style="fill:#000000">
          <path
             class="st0"
             d="M256.2,74.5c-0.6,0-1.3-0.2-1.8-0.7c-1-1-1-2.6,0-3.5c1.1-1.1,1.7-2.5,1.7-4c0-1.5-0.6-3-1.7-4      c-2.2-2.2-5.8-2.2-8.1,0c-1,1-2.6,1-3.5,0c-1-1-1-2.6,0-3.5c4.2-4.2,11-4.2,15.1,0c2,2,3.1,4.7,3.1,7.6c0,2.9-1.1,5.6-3.1,7.6      C257.4,74.3,256.8,74.5,256.2,74.5z"
             id="path12"
             style="fill:#000000" />
        </g>
        <g
           id="g17"
           style="fill:#000000">
          <g
             id="g14"
             style="fill:#000000">
            <path
               class="st0"
               d="M207.9,56.1c-0.6,0-1.3-0.2-1.8-0.7c-1-1-1-2.6,0-3.5l15-15c1-1,2.6-1,3.5,0c1,1,1,2.6,0,3.5l-15,15       C209.1,55.9,208.5,56.1,207.9,56.1z"
               id="path13"
               style="fill:#000000" />
          </g>
          <g
             id="g15"
             style="fill:#000000">
            <path
               class="st0"
               d="M214.3,62.6c-0.6,0-1.3-0.2-1.8-0.7c-1-1-1-2.6,0-3.5l15-15c1-1,2.6-1,3.5,0c1,1,1,2.6,0,3.5l-15,15       C215.6,62.4,215,62.6,214.3,62.6z"
               id="path14"
               style="fill:#000000" />
          </g>
          <g
             id="g16"
             style="fill:#000000">
            <path
               class="st0"
               d="M220.8,69.1c-0.6,0-1.3-0.2-1.8-0.7c-1-1-1-2.6,0-3.5l15-15c1-1,2.6-1,3.5,0c1,1,1,2.6,0,3.5l-15,15       C222.1,68.8,221.4,69.1,220.8,69.1z"
               id="path15"
               style="fill:#000000" />
          </g>
        </g>
      </g>
      <g
         id="g25"
         style="fill:#000000">
        <g
           id="g19"
           style="fill:#000000">
          <path
             class="st0"
             d="M242.1,251.6h-74.7c-3.9,0-7-3.1-7-7v-74.7c0-3.9,3.1-7,7-7h74.7c3.9,0,7,3.1,7,7v74.7      C249.1,248.5,245.9,251.6,242.1,251.6z M167.4,167.9c-1.1,0-2,0.9-2,2v74.7c0,1.1,0.9,2,2,2h74.7c1.1,0,2-0.9,2-2v-74.7      c0-1.1-0.9-2-2-2H167.4z"
             id="path18"
             style="fill:#000000" />
        </g>
        <g
           id="g20"
           style="fill:#000000">
          <path
             class="st0"
             d="M246.6,190.2c-0.8,0-1.5-0.4-2-1c-6.1-8.2-13.3-15.5-21.5-21.7c-1.1-0.8-1.3-2.4-0.5-3.5      c0.8-1.1,2.4-1.3,3.5-0.5c8.5,6.5,16.1,14.1,22.5,22.7c0.8,1.1,0.6,2.7-0.5,3.5C247.6,190,247.1,190.2,246.6,190.2z"
             id="path19"
             style="fill:#000000" />
        </g>
        <g
           id="g21"
           style="fill:#000000">
          <path
             class="st0"
             d="M246.6,241.5c-1.2,0-2.3-0.9-2.5-2.1c-5.7-35.6-33.2-64.3-68.5-71.5c-1.4-0.3-2.2-1.6-2-2.9      c0.3-1.4,1.6-2.2,2.9-2c37.3,7.6,66.4,38,72.5,75.6c0.2,1.4-0.7,2.6-2.1,2.9C246.9,241.5,246.7,241.5,246.6,241.5z"
             id="path20"
             style="fill:#000000" />
        </g>
        <g
           id="g22"
           style="fill:#000000">
          <path
             class="st0"
             d="M227.1,251.6c-1.3,0-2.4-1-2.5-2.4c-1.9-33.4-28.5-60.2-61.9-62.5c-1.4-0.1-2.4-1.3-2.3-2.7      c0.1-1.4,1.3-2.4,2.7-2.3c35.8,2.4,64.4,31.3,66.5,67.2c0.1,1.4-1,2.6-2.4,2.6C227.2,251.6,227.2,251.6,227.1,251.6z"
             id="path21"
             style="fill:#000000" />
        </g>
        <g
           id="g23"
           style="fill:#000000">
          <path
             class="st0"
             d="M206.5,251.6c-1.3,0-2.4-1-2.5-2.3c-1.8-22.2-19.2-39.8-41.4-42c-1.4-0.1-2.4-1.4-2.2-2.7      c0.1-1.4,1.4-2.4,2.7-2.2c24.5,2.4,43.8,21.9,45.9,46.5c0.1,1.4-0.9,2.6-2.3,2.7C206.7,251.6,206.6,251.6,206.5,251.6z"
             id="path22"
             style="fill:#000000" />
        </g>
        <g
           id="g24"
           style="fill:#000000">
          <path
             class="st0"
             d="M185.9,251.6c-1.2,0-2.3-0.9-2.5-2.1c-1.6-11-10-19.6-21-21.5c-1.4-0.2-2.3-1.5-2-2.9      c0.2-1.4,1.5-2.3,2.9-2c13.1,2.3,23.2,12.6,25.1,25.7c0.2,1.4-0.8,2.6-2.1,2.8C186.1,251.6,186,251.6,185.9,251.6z"
             id="path23"
             style="fill:#000000" />
        </g>
      </g>
    </g>
  </g>
  <script
     type="text/javascript"
     id="script27"><![CDATA[ var c=window.location.search.split("color=")[1];if(c=parseInt(c,16),!isNaN(c)){c=c.toString(16);for(var p=document.getElementsByTagName("path"),i=0,l=p.length;i<l;i++)(s=p[i].style).fill="#"+c;for(var r=document.getElementsByTagName("circle"),i=0,l=r.length;i<l;i++){var s=r[i].style;s.fill="#"+c}} ]]></script>
</svg>
