<?xml version="1.0" encoding="UTF-8" standalone="no"?>
<svg
   viewBox="0 0 269.4 267.2"
   version="1.1"
   id="svg28"
   sodipodi:docname="opravy.svg"
   inkscape:version="1.4.2 (2aeb623e1d, 2025-05-12)"
   xmlns:inkscape="http://www.inkscape.org/namespaces/inkscape"
   xmlns:sodipodi="http://sodipodi.sourceforge.net/DTD/sodipodi-0.dtd"
   xmlns="http://www.w3.org/2000/svg"
   xmlns:svg="http://www.w3.org/2000/svg">
  <defs
     id="defs28" />
  <sodipodi:namedview
     id="namedview28"
     pagecolor="#ffffff"
     bordercolor="#000000"
     borderopacity="0.25"
     inkscape:showpageshadow="2"
     inkscape:pageopacity="0.0"
     inkscape:pagecheckerboard="0"
     inkscape:deskcolor="#d1d1d1"
     inkscape:zoom="3.0052394"
     inkscape:cx="134.59826"
     inkscape:cy="133.60001"
     inkscape:window-width="1920"
     inkscape:window-height="1011"
     inkscape:window-x="0"
     inkscape:window-y="0"
     inkscape:window-maximized="1"
     inkscape:current-layer="svg28" />
  <style
     type="text/css"
     id="style1">.st0{fill:#525456}</style>
  <g
     id="g1" />
  <g
     id="g28"
     style="fill:#000000">
    <g
       id="g27"
       style="fill:#000000">
      <g
         id="g10"
         style="fill:#000000">
        <g
           id="g2"
           style="fill:#000000">
          <path
             class="st0"
             d="M191.6,257.9h-45l0-2.5c0.2-27.8,2.8-47.7,5.3-67.1c1.7-13.1,3.3-25.5,4-39.5c1.6-30.6,2.3-52.5-1.8-76.2      l-0.5-2.9h30.9l-0.5,2.9c-4.1,23.7-3.4,45.5-1.8,76.2c0.7,13.9,2.3,26.3,4,39.4c2.5,19.3,5.1,39.3,5.3,67.1L191.6,257.9z       M151.6,252.9h34.9c-0.3-26.2-2.8-45.4-5.2-63.9c-1.7-13.2-3.3-25.7-4.1-39.8c-1.3-25.4-2.5-49.4,1.4-74.3h-19.1      c3.7,23.1,2.9,44.6,1.4,74.3c-0.7,14.1-2.3,26.6-4.1,39.8C154.5,207.6,152,226.7,151.6,252.9z"
             id="path1"
             style="fill:#000000" />
        </g>
        <g
           id="g3"
           style="fill:#000000">
          <path
             class="st0"
             d="M204.9,74.8h-71.7l-13.6-10.7V28.3l13.6-10.7h71.7l13.6,10.7v35.8L204.9,74.8z M134.9,69.8h68.3l10.3-8.1      v-31l-10.3-8.1h-68.3l-10.3,8.1v31L134.9,69.8z"
             id="path2"
             style="fill:#000000" />
        </g>
        <g
           id="g4"
           style="fill:#000000">
          <path
             class="st0"
             d="M185.1,64.6h-32l-13.4-10.1h-20.1V36.2h20.1l13.4-10.1h32l13.4,10.1h20v18.3h-20L185.1,64.6z M154.7,59.6      h28.7l13.4-10.1h16.7v-8.3h-16.7l-13.4-10.1h-28.7l-13.4,10.1h-16.7v8.3h16.7L154.7,59.6z"
             id="path3"
             style="fill:#000000" />
        </g>
        <g
           id="g5"
           style="fill:#000000">
          <path
             class="st0"
             d="M184.6,22.6h-31.1v-2.5c0-6,4.8-10.8,10.8-10.8h9.5c6,0,10.8,4.9,10.8,10.8V22.6z M159.1,17.6H179      c-0.9-2-2.9-3.3-5.2-3.3h-9.5C162,14.3,160,15.6,159.1,17.6z"
             id="path4"
             style="fill:#000000" />
        </g>
        <g
           id="g6"
           style="fill:#000000">
          <path
             class="st0"
             d="M149.2,253.1c-1.4,0-2.5-1.1-2.5-2.5v-0.7l0.4-0.7c10.1-15.4,16.7-31,19.6-46.4l0-0.2      c3.8-13.9,2.5-28.8,1.1-44.5c-1-11.4-2-23.1-1.2-35.3c0.9-12.9,4.4-22.5,10.6-28.5c1-1,2.6-0.9,3.5,0.1c1,1,0.9,2.6-0.1,3.5      c-5.2,5.1-8.3,13.6-9.1,25.2c-0.8,11.8,0.2,23.3,1.2,34.5c1.4,16.2,2.8,31.4-1.3,46.2c-3,16-9.8,32.1-20.2,48      C150.9,252.6,150.1,253.1,149.2,253.1z"
             id="path5"
             style="fill:#000000" />
        </g>
        <g
           id="g7"
           style="fill:#000000">
          <path
             class="st0"
             d="M166,257.9c-0.4,0-0.8-0.1-1.1-0.3c-1.2-0.6-1.7-2.1-1.1-3.4c8.5-16.8,15.1-33.8,19.5-50.6      c0.4-1.3,1.7-2.1,3.1-1.8c1.3,0.4,2.1,1.7,1.8,3.1c-4.5,17.1-11.2,34.5-19.9,51.6C167.8,257.4,166.9,257.9,166,257.9z"
             id="path6"
             style="fill:#000000" />
        </g>
        <g
           id="g8"
           style="fill:#000000">
          <path
             class="st0"
             d="M185.8,257.9c-0.3,0-0.7-0.1-1-0.2c-1.3-0.6-1.8-2.1-1.2-3.3c0.9-2,2-4.4,3.1-6.9c0.5-1.3,2-1.9,3.3-1.3      c1.3,0.5,1.9,2,1.3,3.3c-1.1,2.6-2.2,5-3.1,7.1C187.7,257.4,186.8,257.9,185.8,257.9z"
             id="path7"
             style="fill:#000000" />
        </g>
        <g
           id="g9"
           style="fill:#000000">
          <path
             class="st0"
             d="M159.5,103.6c-0.4,0-0.9-0.1-1.3-0.4c-1.2-0.7-1.5-2.3-0.8-3.4c6.8-11,15.5-19.1,22.3-20.5      c1.4-0.3,2.7,0.6,3,1.9c0.3,1.4-0.6,2.7-1.9,3c-4.4,0.9-12.2,7-19.1,18.3C161.1,103.2,160.3,103.6,159.5,103.6z"
             id="path8"
             style="fill:#000000" />
        </g>
      </g>
      <g
         id="g26"
         style="fill:#000000">
        <g
           id="g11"
           style="fill:#000000">
          <path
             class="st0"
             d="M74,257.9h-3.1c-2.3,0-4.2-1.4-4.3-3.4l0-0.1l-2.4-50.7c-0.1-3.3-5.1-6.1-10.7-6.1h-2.5V9.3h43.1v188.3      h-2.5c-5.7,0-10.6,2.8-10.7,6.1l-2.4,50.7C78.2,256.4,76.3,257.9,74,257.9z M71.5,252.9l1.9,0l2.3-49.5      c0.2-5.5,5.9-9.9,13.2-10.7V14.3H55.9v178.4c7.4,0.8,13,5.3,13.2,10.8L71.5,252.9z"
             id="path10"
             style="fill:#000000" />
        </g>
        <g
           id="g18"
           style="fill:#000000">
          <g
             id="g12"
             style="fill:#000000">
            <path
               class="st0"
               d="M91.4,169.4c-0.5,0-1-0.1-1.4-0.4L52,143.8c-1.2-0.8-1.5-2.3-0.7-3.5c0.8-1.2,2.3-1.5,3.5-0.7l38.1,25.2       c1.2,0.8,1.5,2.3,0.7,3.5C93,169,92.3,169.4,91.4,169.4z"
               id="path11"
               style="fill:#000000" />
          </g>
          <g
             id="g13"
             style="fill:#000000">
            <path
               class="st0"
               d="M91.4,145.8c-0.5,0-1-0.1-1.4-0.4L52,120.1c-1.1-0.8-1.5-2.3-0.7-3.5c0.8-1.1,2.3-1.5,3.5-0.7l1.2,0.8       l36.9,24.4c1.2,0.8,1.5,2.3,0.7,3.5C93,145.4,92.3,145.8,91.4,145.8z"
               id="path12"
               style="fill:#000000" />
          </g>
          <g
             id="g14"
             style="fill:#000000">
            <path
               class="st0"
               d="M91.4,122.1c-0.5,0-1-0.1-1.4-0.4L52,96.5c-1.2-0.8-1.5-2.3-0.7-3.5c0.8-1.2,2.3-1.5,3.5-0.7l1.2,0.8       l36.9,24.4c1.2,0.8,1.5,2.3,0.7,3.5C93,121.8,92.3,122.1,91.4,122.1z"
               id="path13"
               style="fill:#000000" />
          </g>
          <g
             id="g15"
             style="fill:#000000">
            <path
               class="st0"
               d="M91.4,98.5c-0.5,0-1-0.1-1.4-0.4L52,72.9c-1.2-0.8-1.5-2.3-0.7-3.5c0.8-1.2,2.3-1.5,3.5-0.7l1.2,0.8       l36.9,24.4c1.2,0.8,1.5,2.3,0.7,3.5C93,98.1,92.3,98.5,91.4,98.5z"
               id="path14"
               style="fill:#000000" />
          </g>
          <g
             id="g16"
             style="fill:#000000">
            <path
               class="st0"
               d="M91.4,74.9c-0.5,0-1-0.1-1.4-0.4l-1.2-0.8L52,49.3c-1.2-0.8-1.5-2.3-0.7-3.5c0.8-1.2,2.3-1.5,3.5-0.7       l1.2,0.8l36.9,24.4c1.1,0.8,1.5,2.3,0.7,3.5C93,74.5,92.2,74.9,91.4,74.9z"
               id="path15"
               style="fill:#000000" />
          </g>
          <g
             id="g17"
             style="fill:#000000">
            <path
               class="st0"
               d="M91.4,51.3c-0.5,0-1-0.1-1.4-0.4l-1.2-0.8L52,25.7c-1.2-0.8-1.5-2.3-0.7-3.5c0.8-1.2,2.3-1.5,3.5-0.7       l38.1,25.2c1.1,0.8,1.5,2.3,0.7,3.5C93,50.9,92.2,51.3,91.4,51.3z"
               id="path16"
               style="fill:#000000" />
          </g>
        </g>
        <g
           id="g25"
           style="fill:#000000">
          <g
             id="g19"
             style="fill:#000000">
            <path
               class="st0"
               d="M53.4,169.4c-0.8,0-1.6-0.4-2.1-1.1c-0.8-1.2-0.4-2.7,0.7-3.5l38.1-25.2c1.1-0.8,2.7-0.5,3.5,0.7       c0.8,1.2,0.5,2.7-0.7,3.5L54.8,169C54.3,169.3,53.9,169.4,53.4,169.4z"
               id="path18"
               style="fill:#000000" />
          </g>
          <g
             id="g20"
             style="fill:#000000">
            <path
               class="st0"
               d="M53.4,145.8c-0.8,0-1.6-0.4-2.1-1.1c-0.8-1.2-0.4-2.7,0.7-3.5l38-25.2c1.1-0.8,2.7-0.5,3.5,0.7       c0.8,1.1,0.5,2.7-0.7,3.5l-1.2,0.8l-36.9,24.4C54.3,145.6,53.9,145.8,53.4,145.8z"
               id="path19"
               style="fill:#000000" />
          </g>
          <g
             id="g21"
             style="fill:#000000">
            <path
               class="st0"
               d="M53.4,122.1c-0.8,0-1.6-0.4-2.1-1.1c-0.8-1.2-0.4-2.7,0.7-3.5l38.1-25.2c1.2-0.8,2.7-0.4,3.5,0.7       c0.8,1.2,0.4,2.7-0.7,3.5l-38.1,25.2C54.3,122,53.9,122.1,53.4,122.1z"
               id="path20"
               style="fill:#000000" />
          </g>
          <g
             id="g22"
             style="fill:#000000">
            <path
               class="st0"
               d="M53.4,98.5c-0.8,0-1.6-0.4-2.1-1.1c-0.8-1.2-0.4-2.7,0.7-3.5l1.2-0.8l36.9-24.4c1.2-0.8,2.7-0.4,3.5,0.7       c0.8,1.2,0.4,2.7-0.7,3.5L54.8,98.1C54.3,98.4,53.9,98.5,53.4,98.5z"
               id="path21"
               style="fill:#000000" />
          </g>
          <g
             id="g23"
             style="fill:#000000">
            <path
               class="st0"
               d="M53.4,74.9c-0.8,0-1.6-0.4-2.1-1.1c-0.8-1.1-0.5-2.7,0.7-3.5l1.2-0.8l36.9-24.4c1.2-0.8,2.7-0.4,3.5,0.7       c0.8,1.2,0.4,2.7-0.7,3.5l-1.2,0.8L54.8,74.5C54.3,74.8,53.9,74.9,53.4,74.9z"
               id="path22"
               style="fill:#000000" />
          </g>
          <g
             id="g24"
             style="fill:#000000">
            <path
               class="st0"
               d="M53.4,51.3c-0.8,0-1.6-0.4-2.1-1.1c-0.8-1.2-0.5-2.7,0.7-3.5l38.1-25.2c1.2-0.8,2.7-0.4,3.5,0.7       c0.8,1.2,0.4,2.7-0.7,3.5L54.8,50.9C54.3,51.2,53.9,51.3,53.4,51.3z"
               id="path23"
               style="fill:#000000" />
          </g>
        </g>
      </g>
    </g>
  </g>
  <script
     type="text/javascript"
     id="script28"><![CDATA[ var c=window.location.search.split("color=")[1];if(c=parseInt(c,16),!isNaN(c)){c=c.toString(16);for(var p=document.getElementsByTagName("path"),i=0,l=p.length;i<l;i++)(s=p[i].style).fill="#"+c;for(var r=document.getElementsByTagName("circle"),i=0,l=r.length;i<l;i++){var s=r[i].style;s.fill="#"+c}} ]]></script>
</svg>
