<?xml version="1.0" encoding="UTF-8" standalone="no"?>
<svg
   viewBox="0 0 269.4 267.2"
   version="1.1"
   id="svg26"
   sodipodi:docname="rezba.svg"
   inkscape:version="1.4.2 (2aeb623e1d, 2025-05-12)"
   xmlns:inkscape="http://www.inkscape.org/namespaces/inkscape"
   xmlns:sodipodi="http://sodipodi.sourceforge.net/DTD/sodipodi-0.dtd"
   xmlns="http://www.w3.org/2000/svg"
   xmlns:svg="http://www.w3.org/2000/svg">
  <defs
     id="defs26" />
  <sodipodi:namedview
     id="namedview26"
     pagecolor="#ffffff"
     bordercolor="#000000"
     borderopacity="0.25"
     inkscape:showpageshadow="2"
     inkscape:pageopacity="0.0"
     inkscape:pagecheckerboard="0"
     inkscape:deskcolor="#d1d1d1"
     inkscape:zoom="3.0052394"
     inkscape:cx="134.59826"
     inkscape:cy="133.60001"
     inkscape:window-width="1920"
     inkscape:window-height="1011"
     inkscape:window-x="0"
     inkscape:window-y="0"
     inkscape:window-maximized="1"
     inkscape:current-layer="svg26" />
  <style
     type="text/css"
     id="style1">.st0{fill:#525456}</style>
  <g
     id="g1" />
  <g
     id="g26"
     style="fill:#000000">
    <g
       id="g25"
       style="fill:#000000">
      <g
         id="g12"
         style="fill:#000000">
        <g
           id="g2"
           style="fill:#000000">
          <path
             class="st0"
             d="M216.3,24.2h-27.4c-1.4,0-2.5-1.1-2.5-2.5c0-1.4,1.1-2.5,2.5-2.5h27.4c1.4,0,2.5,1.1,2.5,2.5      C218.8,23.1,217.7,24.2,216.3,24.2z"
             id="path1"
             style="fill:#000000" />
        </g>
        <g
           id="g3"
           style="fill:#000000">
          <path
             class="st0"
             d="M217.2,169.5H188v-9.9c0-3.9,3.1-7,7-7h15.2c3.9,0,7,3.1,7,7V169.5z M193,164.5h19.2v-4.9c0-1.1-0.9-2-2-2      H195c-1.1,0-2,0.9-2,2V164.5z"
             id="path2"
             style="fill:#000000" />
        </g>
        <g
           id="g4"
           style="fill:#000000">
          <path
             class="st0"
             d="M208.1,261.8h-10.9c-8.2,0-14.8-6.4-15-14.6c-0.7-27.2,0.1-49.2,5.9-80.7l0.4-2.1h28.4l0.4,2.1      c5.8,31.5,6.5,53.4,5.9,80.6C222.8,255.3,216.1,261.8,208.1,261.8z M192.6,169.5c-5.3,30-6,51.3-5.4,77.6      c0.1,5.5,4.5,9.8,10,9.8h10.9c5.4,0,9.9-4.4,10-9.8c0.6-26.3-0.1-47.6-5.4-77.6H192.6z"
             id="path3"
             style="fill:#000000" />
        </g>
        <g
           id="g5"
           style="fill:#000000">
          <path
             class="st0"
             d="M213.3,157.6h-21.3l0.6-3c0-0.2,4-20,4-27.9c0-5.5-8.3-8.5-8.4-8.5l-1.7-0.6V5.4l3.4,1.4      c4.8,1.9,8.5,2.8,12.2,2.8c4.2,0,8.5-1.1,13.5-2.8l3.3-1.1v112l-1.7,0.6c-0.1,0-8.4,2.9-8.4,8.5c0,7.9,4,27.7,4,27.9      L213.3,157.6z M198,152.6h9.2c-1.1-6-3.5-19.3-3.5-25.9c0-7.1,6.8-11.1,10.1-12.6V12.5c-4.8,1.4-8.3,2-11.8,2      c-3.4,0-6.8-0.6-10.6-1.9v101.5c3.3,1.5,10.1,5.4,10.1,12.6C201.5,133.3,199.2,146.6,198,152.6z"
             id="path4"
             style="fill:#000000" />
        </g>
        <g
           id="g6"
           style="fill:#000000">
          <path
             class="st0"
             d="M215.1,118.8h-25c-1.4,0-2.5-1.1-2.5-2.5c0-1.4,1.1-2.5,2.5-2.5h25c1.4,0,2.5,1.1,2.5,2.5      C217.6,117.7,216.5,118.8,215.1,118.8z"
             id="path5"
             style="fill:#000000" />
        </g>
        <g
           id="g11"
           style="fill:#000000">
          <g
             id="g7"
             style="fill:#000000">
            <path
               class="st0"
               d="M202.6,210.8h-17.4c-1.4,0-2.5-1.1-2.5-2.5c0-1.4,1.1-2.5,2.5-2.5h17.4c1.4,0,2.5,1.1,2.5,2.5       C205.1,209.7,204,210.8,202.6,210.8z"
               id="path6"
               style="fill:#000000" />
          </g>
          <g
             id="g8"
             style="fill:#000000">
            <path
               class="st0"
               d="M202.6,220.8h-17.9c-1.4,0-2.5-1.1-2.5-2.5c0-1.4,1.1-2.5,2.5-2.5h17.9c1.4,0,2.5,1.1,2.5,2.5       C205.1,219.7,204,220.8,202.6,220.8z"
               id="path7"
               style="fill:#000000" />
          </g>
          <g
             id="g9"
             style="fill:#000000">
            <path
               class="st0"
               d="M202.6,230.8h-18.1c-1.4,0-2.5-1.1-2.5-2.5s1.1-2.5,2.5-2.5h18.1c1.4,0,2.5,1.1,2.5,2.5       S204,230.8,202.6,230.8z"
               id="path8"
               style="fill:#000000" />
          </g>
          <g
             id="g10"
             style="fill:#000000">
            <path
               class="st0"
               d="M202.6,240.8h-18.1c-1.4,0-2.5-1.1-2.5-2.5c0-1.4,1.1-2.5,2.5-2.5h18.1c1.4,0,2.5,1.1,2.5,2.5       C205.1,239.7,204,240.8,202.6,240.8z"
               id="path9"
               style="fill:#000000" />
          </g>
        </g>
      </g>
      <g
         id="g24"
         style="fill:#000000">
        <g
           id="g22"
           style="fill:#000000">
          <g
             id="g13"
             style="fill:#000000">
            <path
               class="st0"
               d="M149.8,261.8H46.2V38h103.6V261.8z M51.2,256.8h93.6V43H51.2V256.8z"
               id="path12"
               style="fill:#000000" />
          </g>
          <g
             id="g14"
             style="fill:#000000">
            <path
               class="st0"
               d="M119.7,110c-10.9,0-19.5-13.3-19.5-30.3c0-17,8.5-30.3,19.5-30.3c10.9,0,19.5,13.3,19.5,30.3       C139.2,96.7,130.6,110,119.7,110z M119.7,54.5c-7.8,0-14.5,11.6-14.5,25.3c0,13.7,6.6,25.3,14.5,25.3       c7.8,0,14.5-11.6,14.5-25.3C134.2,66.1,127.6,54.5,119.7,54.5z"
               id="path13"
               style="fill:#000000" />
          </g>
          <g
             id="g15"
             style="fill:#000000">
            <path
               class="st0"
               d="M119.7,95.5c-5.4,0-9.4-6.8-9.4-15.8c0-9,4.1-15.8,9.4-15.8c5.4,0,9.4,6.8,9.4,15.8       C129.1,88.7,125.1,95.5,119.7,95.5z M119.7,69c-1.8,0-4.4,4.3-4.4,10.8c0,6.5,2.7,10.8,4.4,10.8c1.8,0,4.4-4.3,4.4-10.8       C124.1,73.3,121.5,69,119.7,69z"
               id="path14"
               style="fill:#000000" />
          </g>
          <g
             id="g16"
             style="fill:#000000">
            <path
               class="st0"
               d="M80.7,249c-11.6,0-20.7-16.8-20.7-38.2c0-21.4,9.1-38.2,20.7-38.2c11.6,0,20.7,16.8,20.7,38.2       C101.4,232.2,92.3,249,80.7,249z M80.7,177.6c-8.5,0-15.7,15.2-15.7,33.2c0,18,7.2,33.2,15.7,33.2c8.5,0,15.7-15.2,15.7-33.2       C96.4,192.8,89.2,177.6,80.7,177.6z"
               id="path15"
               style="fill:#000000" />
          </g>
          <g
             id="g17"
             style="fill:#000000">
            <path
               class="st0"
               d="M79.3,231.6c-5.9,0-10.4-7.7-10.4-18c0-10.3,4.5-18,10.4-18c5.9,0,10.4,7.7,10.4,18       C89.7,223.9,85.2,231.6,79.3,231.6z M79.3,200.6c-2.2,0-5.4,5.1-5.4,13c0,7.9,3.2,13,5.4,13c2.2,0,5.4-5.1,5.4-13       C84.7,205.7,81.5,200.6,79.3,200.6z"
               id="path16"
               style="fill:#000000" />
          </g>
          <g
             id="g18"
             style="fill:#000000">
            <path
               class="st0"
               d="M122.6,261.8c-0.3,0-0.5,0-0.8-0.1c-1.3-0.5-2-1.9-1.5-3.2c12.6-36.3,9.9-69.2-7.7-95       c-9.2-13.5-17.6-21.2-25.1-27.9c-10.8-9.8-19.4-17.6-23.6-37.7c-5.1-24,4.2-40.8,15.9-58.8c0.8-1.2,2.3-1.5,3.5-0.7       c1.2,0.8,1.5,2.3,0.7,3.5c-13.4,20.6-19.5,34.8-15.2,55c3.9,18.5,11.5,25.4,22.1,35c7.6,6.9,16.3,14.8,25.8,28.8       c18.5,27.2,21.4,61.6,8.3,99.5C124.6,261.2,123.6,261.8,122.6,261.8z"
               id="path17"
               style="fill:#000000" />
          </g>
          <g
             id="g19"
             style="fill:#000000">
            <path
               class="st0"
               d="M48.7,66c-0.6,0-1.1-0.2-1.6-0.6c-1.1-0.9-1.2-2.5-0.3-3.5c5.8-6.8,12-14.2,18.5-22.9       c0.8-1.1,2.4-1.3,3.5-0.5c1.1,0.8,1.3,2.4,0.5,3.5c-6.6,8.8-12.8,16.2-18.7,23.1C50.1,65.7,49.4,66,48.7,66z"
               id="path18"
               style="fill:#000000" />
          </g>
          <g
             id="g20"
             style="fill:#000000">
            <path
               class="st0"
               d="M103.7,261.8c-0.3,0-0.6-0.1-0.9-0.2c-1.3-0.5-1.9-1.9-1.5-3.2c10.4-27.6,17.5-66.5-8.3-94.7       C81,150.4,67,146.3,54.7,142.7c-2.4-0.7-4.6-1.3-6.8-2.1c-1.3-0.4-2-1.8-1.6-3.1c0.4-1.3,1.8-2,3.1-1.6c2.1,0.7,4.3,1.3,6.6,2       c12.9,3.8,27.6,8.1,40.7,22.5c21.7,23.8,24.9,58.3,9.3,99.8C105.7,261.2,104.8,261.8,103.7,261.8z"
               id="path19"
               style="fill:#000000" />
          </g>
          <g
             id="g21"
             style="fill:#000000">
            <path
               class="st0"
               d="M147.3,169.5c-0.7,0-1.5-0.3-2-1c-8.4-10.9-17.8-19.4-27-27.6c-15.1-13.6-29.4-26.4-33.6-46.5       c-4.4-21,1.4-38.7,18.4-55.7c1-1,2.6-1,3.5,0c1,1,1,2.6,0,3.5C90.8,58.1,85.6,73.9,89.7,93.4c3.9,18.4,16.9,30.2,32,43.8       c9.3,8.4,19,17.1,27.6,28.3c0.8,1.1,0.6,2.7-0.5,3.5C148.4,169.3,147.8,169.5,147.3,169.5z"
               id="path20"
               style="fill:#000000" />
          </g>
        </g>
        <g
           id="g23"
           style="fill:#000000">
          <path
             class="st0"
             d="M149.8,261.8H46.2V38h103.6V261.8z M51.2,256.8h93.6V43H51.2V256.8z"
             id="path22"
             style="fill:#000000" />
        </g>
      </g>
    </g>
  </g>
  <script
     type="text/javascript"
     id="script26"><![CDATA[ var c=window.location.search.split("color=")[1];if(c=parseInt(c,16),!isNaN(c)){c=c.toString(16);for(var p=document.getElementsByTagName("path"),i=0,l=p.length;i<l;i++)(s=p[i].style).fill="#"+c;for(var r=document.getElementsByTagName("circle"),i=0,l=r.length;i<l;i++){var s=r[i].style;s.fill="#"+c}} ]]></script>
</svg>
