<?xml version="1.0" encoding="UTF-8" standalone="no"?>
<svg
   viewBox="0 0 269.4 267.2"
   version="1.1"
   id="svg21"
   sodipodi:docname="vyroba.svg"
   inkscape:version="1.4.2 (2aeb623e1d, 2025-05-12)"
   xmlns:inkscape="http://www.inkscape.org/namespaces/inkscape"
   xmlns:sodipodi="http://sodipodi.sourceforge.net/DTD/sodipodi-0.dtd"
   xmlns="http://www.w3.org/2000/svg"
   xmlns:svg="http://www.w3.org/2000/svg">
  <defs
     id="defs21" />
  <sodipodi:namedview
     id="namedview21"
     pagecolor="#ffffff"
     bordercolor="#000000"
     borderopacity="0.25"
     inkscape:showpageshadow="2"
     inkscape:pageopacity="0.0"
     inkscape:pagecheckerboard="0"
     inkscape:deskcolor="#d1d1d1"
     inkscape:zoom="3.0052394"
     inkscape:cx="134.59826"
     inkscape:cy="133.60001"
     inkscape:window-width="1920"
     inkscape:window-height="1011"
     inkscape:window-x="0"
     inkscape:window-y="0"
     inkscape:window-maximized="1"
     inkscape:current-layer="svg21" />
  <style
     type="text/css"
     id="style1">.st0{fill:#525456}</style>
  <g
     id="g1" />
  <g
     id="g21"
     style="fill:#000000">
    <g
       id="g20"
       style="fill:#000000">
      <g
         id="g8"
         style="fill:#000000">
        <g
           id="g2"
           style="fill:#000000">
          <path
             class="st0"
             d="M238.5,177.9l-37.5-5.3L89.7,61.4c-5.6-5.6-5.6-14.8,0-20.4l11.9-11.9c2.7-2.7,6.3-4.2,10.2-4.2      c3.9,0,7.5,1.5,10.2,4.2l111.3,111.3L238.5,177.9z M203.3,167.9l29.3,4.1l-4.1-29.3L118.4,32.6c-1.8-1.8-4.1-2.8-6.7-2.8      c-2.5,0-4.9,1-6.7,2.8L93.2,44.5c-3.7,3.7-3.7,9.7,0,13.3L203.3,167.9z"
             id="path1"
             style="fill:#000000" />
        </g>
        <g
           id="g3"
           style="fill:#000000">
          <path
             class="st0"
             d="M202.2,172.8c-0.6,0-1.3-0.2-1.8-0.7c-1-1-1-2.6,0-3.5l28.7-28.7c1-1,2.6-1,3.5,0c1,1,1,2.6,0,3.5      l-28.7,28.7C203.4,172.6,202.8,172.8,202.2,172.8z"
             id="path2"
             style="fill:#000000" />
        </g>
        <g
           id="g4"
           style="fill:#000000">
          <path
             class="st0"
             d="M108.7,79.3c-0.6,0-1.3-0.2-1.8-0.7c-1-1-1-2.6,0-3.5l28.7-28.7c1-1,2.6-1,3.5,0c1,1,1,2.6,0,3.5      l-28.7,28.7C109.9,79,109.3,79.3,108.7,79.3z"
             id="path3"
             style="fill:#000000" />
        </g>
        <g
           id="g5"
           style="fill:#000000">
          <path
             class="st0"
             d="M116.2,86.8c-0.6,0-1.3-0.2-1.8-0.7c-1-1-1-2.6,0-3.5l28.7-28.7c1-1,2.6-1,3.5,0c1,1,1,2.6,0,3.5      l-28.7,28.7C117.4,86.5,116.8,86.8,116.2,86.8z"
             id="path4"
             style="fill:#000000" />
        </g>
        <g
           id="g6"
           style="fill:#000000">
          <path
             class="st0"
             d="M220.1,175.3c-0.6,0-1.3-0.2-1.8-0.7c-1-1-1-2.6,0-3.5l13.3-13.3c1-1,2.6-1,3.5,0c1,1,1,2.6,0,3.5      l-13.3,13.3C221.4,175.1,220.7,175.3,220.1,175.3z"
             id="path5"
             style="fill:#000000" />
        </g>
        <g
           id="g7"
           style="fill:#000000">
          <path
             class="st0"
             d="M210.7,139.2c-0.6,0-1.3-0.2-1.8-0.7l-62.2-62.2c-1-1-1-2.6,0-3.5c1-1,2.6-1,3.5,0l62.2,62.2      c1,1,1,2.6,0,3.5C211.9,139,211.3,139.2,210.7,139.2z"
             id="path6"
             style="fill:#000000" />
        </g>
      </g>
      <g
         id="g19"
         style="fill:#000000">
        <g
           id="g9"
           style="fill:#000000">
          <path
             class="st0"
             d="M229,242.3h-198V44.3L229,242.3z M35.9,237.3h181l-181-181V237.3z"
             id="path8"
             style="fill:#000000" />
        </g>
        <g
           id="g10"
           style="fill:#000000">
          <path
             class="st0"
             d="M167.9,210.5H63.4V107.1L167.9,210.5z M68.4,205.5h87.3l-87.3-86.3V205.5z"
             id="path9"
             style="fill:#000000" />
        </g>
        <g
           id="g11"
           style="fill:#000000">
          <path
             class="st0"
             d="M47.6,99.7H33.4c-1.4,0-2.5-1.1-2.5-2.5c0-1.4,1.1-2.5,2.5-2.5h14.2c1.4,0,2.5,1.1,2.5,2.5      C50.1,98.6,49,99.7,47.6,99.7z"
             id="path10"
             style="fill:#000000" />
        </g>
        <g
           id="g12"
           style="fill:#000000">
          <path
             class="st0"
             d="M47.6,215.8H33.4c-1.4,0-2.5-1.1-2.5-2.5c0-1.4,1.1-2.5,2.5-2.5h14.2c1.4,0,2.5,1.1,2.5,2.5      C50.1,214.7,49,215.8,47.6,215.8z"
             id="path11"
             style="fill:#000000" />
        </g>
        <g
           id="g13"
           style="fill:#000000">
          <path
             class="st0"
             d="M43.2,116.3h-9.7c-1.4,0-2.5-1.1-2.5-2.5c0-1.4,1.1-2.5,2.5-2.5h9.7c1.4,0,2.5,1.1,2.5,2.5      C45.7,115.2,44.5,116.3,43.2,116.3z"
             id="path12"
             style="fill:#000000" />
        </g>
        <g
           id="g14"
           style="fill:#000000">
          <path
             class="st0"
             d="M43.2,132.9h-9.7c-1.4,0-2.5-1.1-2.5-2.5c0-1.4,1.1-2.5,2.5-2.5h9.7c1.4,0,2.5,1.1,2.5,2.5      C45.7,131.7,44.5,132.9,43.2,132.9z"
             id="path13"
             style="fill:#000000" />
        </g>
        <g
           id="g15"
           style="fill:#000000">
          <path
             class="st0"
             d="M43.2,149.5h-9.7c-1.4,0-2.5-1.1-2.5-2.5c0-1.4,1.1-2.5,2.5-2.5h9.7c1.4,0,2.5,1.1,2.5,2.5      C45.7,148.3,44.5,149.5,43.2,149.5z"
             id="path14"
             style="fill:#000000" />
        </g>
        <g
           id="g16"
           style="fill:#000000">
          <path
             class="st0"
             d="M43.2,166h-9.7c-1.4,0-2.5-1.1-2.5-2.5c0-1.4,1.1-2.5,2.5-2.5h9.7c1.4,0,2.5,1.1,2.5,2.5      C45.7,164.9,44.5,166,43.2,166z"
             id="path15"
             style="fill:#000000" />
        </g>
        <g
           id="g17"
           style="fill:#000000">
          <path
             class="st0"
             d="M43.2,182.7h-9.7c-1.4,0-2.5-1.1-2.5-2.5c0-1.4,1.1-2.5,2.5-2.5h9.7c1.4,0,2.5,1.1,2.5,2.5      C45.7,181.5,44.5,182.7,43.2,182.7z"
             id="path16"
             style="fill:#000000" />
        </g>
        <g
           id="g18"
           style="fill:#000000">
          <path
             class="st0"
             d="M43.2,199.2h-9.7c-1.4,0-2.5-1.1-2.5-2.5c0-1.4,1.1-2.5,2.5-2.5h9.7c1.4,0,2.5,1.1,2.5,2.5      C45.7,198.1,44.5,199.2,43.2,199.2z"
             id="path17"
             style="fill:#000000" />
        </g>
      </g>
    </g>
  </g>
  <script
     type="text/javascript"
     id="script21"><![CDATA[ var c=window.location.search.split("color=")[1];if(c=parseInt(c,16),!isNaN(c)){c=c.toString(16);for(var p=document.getElementsByTagName("path"),i=0,l=p.length;i<l;i++)(s=p[i].style).fill="#"+c;for(var r=document.getElementsByTagName("circle"),i=0,l=r.length;i<l;i++){var s=r[i].style;s.fill="#"+c}} ]]></script>
</svg>
